<?xml version="1.0" encoding="UTF-8" ?>
<!DOCTYPE svg PUBLIC "-//W3C//DTD SVG 1.1//EN" "http://www.w3.org/Graphics/SVG/1.1/DTD/svg11.dtd">
<svg width="445pt" height="288pt" viewBox="0 0 445 288" version="1.1" xmlns="http://www.w3.org/2000/svg">
<g id="#fdfcfbff">
</g>
<g id="#000000ff">
<path fill="#000000" opacity="1.00" d=" M 73.96 21.91 C 89.07 13.25 107.52 18.21 124.02 17.01 C 123.98 26.33 123.98 35.65 124.01 44.97 C 112.00 45.15 99.84 44.11 87.95 46.02 C 75.97 50.59 64.78 56.96 53.04 62.09 C 53.01 113.75 52.93 165.41 53.01 217.07 C 52.83 222.41 59.44 223.66 62.95 226.09 C 74.68 231.13 85.71 238.85 98.66 240.36 C 107.43 241.18 116.25 241.05 125.05 241.12 C 124.97 250.30 124.96 259.48 124.77 268.66 C 111.96 268.76 98.98 270.02 86.24 268.54 C 63.23 258.64 40.90 247.20 18.02 237.00 C 17.98 190.33 17.99 143.67 18.04 97.00 C 18.11 80.74 16.48 64.47 17.82 48.23 C 36.73 39.88 55.23 30.64 73.96 21.91 Z" />
<path fill="#000000" opacity="1.00" d=" M 310.99 17.02 C 324.58 17.12 338.23 16.28 351.79 17.49 C 360.24 19.99 367.82 24.60 375.82 28.20 C 388.89 34.02 401.70 40.39 414.75 46.26 C 418.11 47.70 421.39 50.65 419.91 54.98 C 420.20 111.66 419.86 168.35 420.06 225.03 C 418.99 228.51 421.40 233.50 418.41 236.39 C 416.01 238.54 412.99 239.85 410.10 241.19 C 396.31 247.21 382.98 254.23 369.18 260.25 C 363.16 262.73 357.65 266.52 351.31 268.17 C 337.93 269.81 324.42 268.87 310.98 268.99 C 311.02 259.67 311.01 250.36 310.99 241.05 C 321.45 240.97 331.98 241.56 342.39 240.37 C 351.08 237.80 358.85 232.87 367.05 229.10 C 372.19 226.29 377.95 224.33 382.52 220.60 C 384.27 211.85 383.88 202.87 384.07 194.00 C 383.97 154.00 383.94 113.99 384.12 73.98 C 383.69 69.98 384.90 64.59 381.64 61.39 C 373.67 56.16 364.61 52.95 355.98 49.02 C 342.00 42.40 325.87 45.78 310.98 44.94 C 311.02 35.63 311.01 26.33 310.99 17.02 Z" />
<path fill="#000000" opacity="1.00" d=" M 147.86 48.10 C 159.84 48.03 171.86 47.40 183.82 48.33 C 195.54 57.55 205.38 68.98 215.37 80.01 C 206.57 89.00 197.50 97.74 189.02 107.04 C 187.37 108.60 185.95 110.84 183.61 111.51 C 172.03 112.59 160.38 111.98 148.77 111.90 C 153.32 106.06 158.34 100.62 163.49 95.31 C 148.38 95.02 133.23 94.40 118.13 95.34 C 111.20 96.15 104.86 102.64 106.16 110.00 C 105.76 133.34 105.88 156.70 106.04 180.05 C 106.21 186.11 111.36 191.79 117.41 192.45 C 140.59 194.05 163.85 192.29 187.06 193.04 C 192.08 191.51 195.08 195.98 198.17 198.80 C 205.64 207.04 213.37 215.02 221.25 222.85 C 187.83 223.13 154.40 222.99 120.98 223.03 C 112.32 223.23 103.52 221.44 96.05 216.91 C 82.86 210.34 75.13 195.49 75.11 181.03 C 74.64 159.36 75.16 137.67 74.92 115.99 C 75.27 109.22 74.44 102.17 76.58 95.63 C 79.92 86.31 85.57 77.40 94.17 72.15 C 101.88 67.37 111.04 65.50 120.01 65.16 C 134.15 64.67 148.30 65.12 162.45 64.80 C 157.65 59.17 152.73 53.66 147.86 48.10 Z" />
<path fill="#000000" opacity="1.00" d=" M 218.82 66.02 C 243.50 64.04 268.28 65.38 293.00 64.95 C 306.63 65.24 320.74 63.58 333.88 68.23 C 349.76 74.60 361.89 90.60 361.78 108.01 C 362.37 129.67 362.00 151.35 361.96 173.02 C 361.99 186.27 359.60 201.01 349.69 210.69 C 341.58 219.35 329.90 224.74 317.99 224.79 C 303.95 225.38 289.90 224.93 275.85 225.06 C 280.42 230.63 285.60 235.71 289.69 241.66 C 279.11 241.98 268.52 242.45 257.95 242.00 C 255.34 242.00 253.22 240.31 251.47 238.56 C 242.63 229.45 234.28 219.88 225.45 210.76 C 234.09 200.66 243.20 190.96 252.60 181.56 C 255.64 178.16 260.92 178.68 265.00 178.11 C 273.43 177.76 281.91 177.76 290.33 178.50 C 286.19 184.29 281.07 189.27 276.45 194.67 C 290.26 194.95 304.10 195.61 317.90 194.72 C 321.90 193.84 326.23 192.11 328.71 188.70 C 331.74 181.54 330.79 173.57 331.11 166.01 C 330.73 146.05 331.64 126.07 330.65 106.14 C 329.32 99.34 321.43 95.61 315.05 96.08 C 282.31 95.68 249.56 96.28 216.82 95.91 C 221.82 90.71 226.89 85.56 231.95 80.41 C 227.57 75.61 223.21 70.80 218.82 66.02 Z" />
<path fill="#000000" opacity="1.00" d=" M 219.33 107.28 C 231.53 114.67 245.04 119.61 259.08 122.10 C 259.83 137.10 258.08 152.37 252.26 166.30 C 246.13 178.49 236.37 189.06 224.00 195.04 C 222.03 195.92 219.70 197.55 217.47 196.47 C 204.30 189.74 191.78 180.06 185.98 166.02 C 178.82 152.37 179.75 136.51 180.22 121.61 C 193.98 119.19 207.77 115.45 219.33 107.28 Z" />
</g>
</svg>
