<?xml version="1.0" encoding="UTF-8" ?>
<!DOCTYPE svg PUBLIC "-//W3C//DTD SVG 1.1//EN" "http://www.w3.org/Graphics/SVG/1.1/DTD/svg11.dtd">
<svg width="445pt" height="288pt" viewBox="0 0 445 288" version="1.1" xmlns="http://www.w3.org/2000/svg">
<g id="#fdfcfbff">
</g>
<g id="#3e4954ff">
<path fill="#3e4954" opacity="1.00" d=" M 81.39 18.42 C 95.26 13.74 110.44 16.71 124.78 16.26 C 124.89 25.83 125.04 35.42 124.21 44.96 C 113.84 44.96 103.44 44.50 93.10 45.39 C 78.77 48.63 65.97 56.30 52.96 62.84 C 53.02 111.23 53.05 159.63 52.90 208.02 C 53.57 212.78 51.15 220.45 57.13 222.74 C 68.60 228.40 79.88 234.66 91.94 238.98 C 102.85 240.78 114.00 239.89 125.02 240.04 C 124.98 249.69 124.98 259.34 125.01 269.00 C 111.14 268.66 97.01 270.29 83.31 267.69 C 62.00 258.23 41.02 248.01 20.01 237.88 C 15.39 235.57 17.93 228.96 16.96 225.03 C 17.01 166.35 17.01 107.67 17.00 48.99 C 38.31 38.50 59.71 28.15 81.39 18.42 Z" />
<path fill="#3e4954" opacity="1.00" d=" M 311.00 17.08 C 327.67 16.63 345.63 12.68 361.08 20.86 C 380.62 30.42 400.71 38.83 420.01 48.90 C 419.99 111.30 420.00 173.69 420.01 236.09 C 400.91 246.44 380.75 254.66 361.31 264.33 C 345.92 272.67 327.61 267.82 310.95 268.99 C 311.02 259.43 311.00 249.87 311.21 240.32 C 319.81 240.17 328.42 240.24 337.04 240.03 C 344.52 240.71 351.17 236.72 357.63 233.60 C 365.92 229.06 374.49 225.10 383.01 221.02 C 382.99 168.01 383.00 114.99 383.00 61.98 C 367.24 55.04 352.02 44.34 334.03 45.01 C 326.34 44.80 318.66 44.93 310.98 44.98 C 311.02 35.68 311.02 26.38 311.00 17.08 Z" />
</g>
<g id="#fc6505ff">
<path fill="#fc6505" opacity="1.00" d=" M 146.52 47.30 C 158.35 47.00 170.19 46.51 182.02 47.12 C 184.57 47.19 186.33 49.33 188.20 50.78 C 198.11 59.99 207.37 69.89 216.30 80.05 C 205.57 91.11 194.53 101.85 183.75 112.85 C 171.43 113.02 159.12 113.02 146.81 112.93 C 151.58 107.29 156.57 101.84 161.41 96.27 C 147.60 96.01 133.78 95.61 119.96 96.02 C 113.61 96.13 107.17 100.85 106.55 107.41 C 105.25 125.57 106.27 143.81 105.88 162.00 C 106.13 170.15 105.04 178.74 108.59 186.38 C 110.90 190.74 116.46 192.00 121.00 191.82 C 144.29 192.78 167.61 191.13 190.89 192.28 C 193.72 192.85 195.45 195.66 197.56 197.41 C 205.62 206.22 214.17 214.55 222.39 223.20 C 188.63 224.76 154.80 223.92 121.02 223.82 C 103.29 224.57 85.39 214.27 78.01 198.02 C 72.84 186.01 74.20 172.71 73.93 160.00 C 74.17 141.66 73.62 123.31 74.13 104.97 C 75.23 87.55 87.98 71.73 104.65 66.66 C 123.13 62.08 142.29 65.02 161.09 64.01 C 156.17 58.50 151.31 52.93 146.52 47.30 Z" />
<path fill="#fc6505" opacity="1.00" d=" M 216.82 65.10 C 251.89 65.01 286.96 64.82 322.03 65.08 C 343.98 66.05 363.43 86.81 361.96 108.97 C 362.23 130.65 361.88 152.33 362.11 174.01 C 362.33 184.59 361.41 196.13 354.88 204.92 C 348.26 215.32 337.18 223.03 324.88 224.85 C 309.25 227.64 293.33 224.36 277.62 226.05 C 282.18 231.53 287.10 236.69 292.05 241.83 C 279.81 240.89 267.33 244.34 255.25 241.68 C 243.58 232.76 234.31 221.07 224.56 210.16 C 234.83 199.94 243.73 188.27 254.89 179.00 C 267.10 176.91 279.80 178.21 292.20 178.09 C 287.52 183.46 282.76 188.74 277.83 193.88 C 291.52 193.94 305.23 194.55 318.91 193.75 C 323.51 192.68 328.64 189.59 329.43 184.59 C 331.05 161.95 329.13 139.20 330.48 116.54 C 330.53 111.05 331.79 103.17 326.00 99.97 C 320.81 95.45 313.33 96.52 307.03 95.98 C 276.62 95.82 246.21 96.23 215.80 95.87 C 220.81 90.71 225.87 85.60 231.02 80.58 C 226.51 75.22 221.65 70.18 216.82 65.10 Z" />
</g>
</svg>
